<svg xmlns="http://www.w3.org/2000/svg" viewBox="0 0 288 288"><path d="M285.8 119.7c2.9-2.9 2.9-7.7 0-10.6 -37.9-37.9-88.2-58.7-141.8-58.7 -53.6 0-103.9 20.9-141.8 58.7C0.8 110.5 0 112.4 0 114.4c0 2 0.8 3.9 2.2 5.3l86.7 86.7c0.7 0.7 1.5 1.2 2.4 1.6 -0.3 9.4 2.7 19 12.8 27.8 1.4 1.2 3.2 1.9 4.9 1.9 2.1 0 4.2-0.9 5.6-2.6 2.7-3.1 2.4-7.9-0.7-10.6 -8.4-7.4-9-14.8-6.2-25.1 10.3-7.3 22.6-11.3 35.4-11.4 -5.3 15.1-9 32.5 8.4 47.8 1.4 1.2 3.2 1.9 4.9 1.9 2.1 0 4.2-0.9 5.6-2.6 2.7-3.1 2.4-7.9-0.7-10.6 -10.9-9.5-8.7-19.2-2.9-34.8 10.4 2.5 20 7.6 28 15 -1.1 10.5 1.3 21.3 12.5 31.1 1.4 1.2 3.2 1.9 4.9 1.9 2.1 0 4.2-0.9 5.6-2.6 2.7-3.1 2.4-7.9-0.7-10.6 -7.2-6.3-8.7-12.8-7.1-20.9L285.8 119.7zM163.6 175.5c3.4-11.4 4.8-23.7-3.5-35.3l5.5-4.6c1.3-1.1 1.9-2.6 1.8-4.3 -0.1-1.6-1.1-3.1-2.5-3.9l-36.7-21c-1.8-1-4.1-0.8-5.7 0.5 -1.6 1.3-2.2 3.6-1.5 5.5l14.3 39.8c0.6 1.5 1.8 2.7 3.4 3.1 0.4 0.1 0.9 0.2 1.3 0.2 1.2 0 2.3-0.4 3.2-1.2l5.4-4.5c4.1 6.6 3.2 13.7 0.1 23.2 -1.5-0.1-3.1-0.1-4.6-0.1 -10.1 0-19.8 1.9-28.9 5.5 4.1-12.2 6.5-25.7-2.5-38.3l5.5-4.6c1.3-1.1 1.9-2.6 1.8-4.3 -0.1-1.6-1.1-3.1-2.5-3.9l-36.7-21c-1.8-1-4.1-0.8-5.7 0.5 -1.6 1.3-2.2 3.6-1.5 5.5l14.3 39.8c0.6 1.5 1.8 2.7 3.4 3.1 0.4 0.1 0.9 0.2 1.3 0.2 1.2 0 2.3-0.4 3.2-1.2l5.4-4.5c5.3 8.4 2.3 17.8-3 31.8 -1 2.8-2.1 5.7-3.1 8.7 -0.1 0.1-0.3 0.2-0.4 0.3l-76.3-76.3c34.4-31.7 78.7-49.1 125.8-49.1 47.1 0 91.4 17.4 125.8 49.1l-57.7 57.7c2.7-10.4 3.1-21.5-4.4-32l5.5-4.6c1.3-1.1 1.9-2.6 1.8-4.3 -0.1-1.6-1.1-3.1-2.5-3.9l-36.7-21c-1.8-1-4.1-0.8-5.7 0.5 -1.6 1.3-2.2 3.6-1.5 5.5l14.3 39.8c0.6 1.5 1.8 2.7 3.4 3.1 0.4 0.1 0.9 0.2 1.3 0.2 1.2 0 2.3-0.4 3.2-1.2l5.4-4.5c5.3 8.4 2.3 17.8-3 31.8 -0.8 2.2-1.7 4.4-2.5 6.7C182.5 182.4 173.3 178 163.6 175.5z"/></svg>